<svg width="719" height="150" fill="none" xmlns="http://www.w3.org/2000/svg"><path d="M49.9 97.6H23.7L19.5 110H1.6L27 39.8h19.8L72.2 110H54.1l-4.2-12.4zm-4.4-13.2l-8.7-25.7-8.6 25.7h17.3zm51.53 12.4h22.4V110h-39.5V39.8h17.1v57zm56.857-57c7.4 0 13.866 1.467 19.4 4.4 5.533 2.933 9.8 7.067 12.8 12.4 3.066 5.267 4.6 11.367 4.6 18.3 0 6.867-1.534 12.967-4.6 18.3-3 5.333-7.3 9.467-12.9 12.4-5.534 2.933-11.967 4.4-19.3 4.4h-26.3V39.8h26.3zm-1.1 55.4c6.466 0 11.5-1.767 15.1-5.3 3.6-3.533 5.4-8.533 5.4-15 0-6.467-1.8-11.5-5.4-15.1-3.6-3.6-8.634-5.4-15.1-5.4h-8.1v40.8h8.1zm80.656 15.5c-6.6 0-12.667-1.533-18.2-4.6-5.467-3.067-9.833-7.333-13.1-12.8-3.2-5.533-4.8-11.733-4.8-18.6 0-6.867 1.6-13.033 4.8-18.5 3.267-5.467 7.633-9.733 13.1-12.8 5.533-3.067 11.6-4.6 18.2-4.6s12.633 1.533 18.1 4.6c5.533 3.067 9.867 7.333 13 12.8 3.2 5.467 4.8 11.633 4.8 18.5 0 6.867-1.6 13.067-4.8 18.6-3.2 5.467-7.533 9.733-13 12.8s-11.5 4.6-18.1 4.6zm0-15.6c5.6 0 10.067-1.867 13.4-5.6 3.4-3.733 5.1-8.667 5.1-14.8 0-6.2-1.7-11.133-5.1-14.8-3.333-3.733-7.8-5.6-13.4-5.6-5.667 0-10.2 1.833-13.6 5.5-3.333 3.667-5 8.633-5 14.9 0 6.2 1.667 11.167 5 14.9 3.4 3.667 7.933 5.5 13.6 5.5zm62.213-55.3v42c0 4.2 1.034 7.433 3.1 9.7 2.067 2.267 5.1 3.4 9.1 3.4s7.067-1.133 9.2-3.4c2.134-2.267 3.2-5.5 3.2-9.7v-42h17.1v41.9c0 6.267-1.333 11.567-4 15.9-2.666 4.333-6.266 7.6-10.8 9.8-4.466 2.2-9.466 3.3-15 3.3-5.533 0-10.5-1.067-14.9-3.2-4.333-2.2-7.766-5.467-10.3-9.8-2.533-4.4-3.8-9.733-3.8-16V39.8h17.1zm79.108 70.9c-5.133 0-9.733-.833-13.8-2.5s-7.333-4.133-9.8-7.4c-2.4-3.267-3.667-7.2-3.8-11.8h18.2c.267 2.6 1.167 4.6 2.7 6 1.533 1.333 3.533 2 6 2 2.533 0 4.533-.567 6-1.7 1.467-1.2 2.2-2.833 2.2-4.9 0-1.733-.6-3.167-1.8-4.3-1.133-1.133-2.567-2.067-4.3-2.8-1.667-.733-4.067-1.567-7.2-2.5-4.533-1.4-8.233-2.8-11.1-4.2-2.867-1.4-5.333-3.467-7.4-6.2s-3.1-6.3-3.1-10.7c0-6.533 2.367-11.633 7.1-15.3 4.733-3.733 10.9-5.6 18.5-5.6 7.733 0 13.967 1.867 18.7 5.6 4.733 3.667 7.267 8.8 7.6 15.4h-18.5c-.133-2.267-.967-4.033-2.5-5.3-1.533-1.333-3.5-2-5.9-2-2.067 0-3.733.567-5 1.7-1.267 1.067-1.9 2.633-1.9 4.7 0 2.267 1.067 4.033 3.2 5.3 2.133 1.267 5.467 2.633 10 4.1 4.533 1.533 8.2 3 11 4.4 2.867 1.4 5.333 3.433 7.4 6.1s3.1 6.1 3.1 10.3c0 4-1.033 7.633-3.1 10.9-2 3.267-4.933 5.867-8.8 7.8-3.867 1.933-8.433 2.9-13.7 2.9zM466.816 110h-5.029V74.893h-41.699V110h-4.981V38.613h4.981v31.69h41.699v-31.69h5.029V110zm23.243-53.076v34.375c0 5.338 1.123 9.228 3.369 11.67 2.246 2.409 5.729 3.613 10.449 3.613 6.315 0 10.954-1.595 13.916-4.785 2.995-3.19 4.492-8.382 4.492-15.576V56.924h4.785V110h-4.101l-.879-7.324h-.293c-3.451 5.534-9.587 8.301-18.408 8.301-12.077 0-18.116-6.462-18.116-19.385V56.924h4.786zm67.822 25.781l-18.506-25.781h5.566l15.821 22.363 15.674-22.363h5.322l-18.213 25.781L583.076 110h-5.615l-16.699-23.682L543.965 110h-5.322l19.238-27.295zM599.482 110h-4.834V34.023h4.834V110zm39.258.977c-7.715 0-13.737-2.377-18.066-7.129-4.297-4.753-6.445-11.41-6.445-19.971 0-8.464 2.083-15.234 6.25-20.312 4.166-5.111 9.781-7.667 16.845-7.667 6.25 0 11.182 2.181 14.795 6.543 3.613 4.362 5.42 10.287 5.42 17.774v3.906h-38.232c.065 7.292 1.757 12.858 5.078 16.699 3.353 3.841 8.138 5.762 14.355 5.762 3.028 0 5.681-.212 7.959-.635 2.311-.423 5.225-1.334 8.74-2.734v4.394c-2.994 1.303-5.761 2.181-8.3 2.637-2.539.488-5.339.733-8.399.733zm-1.416-50.782c-5.11 0-9.212 1.693-12.304 5.078-3.093 3.353-4.9 8.204-5.42 14.551h32.812c0-6.152-1.335-10.954-4.004-14.404-2.669-3.483-6.364-5.225-11.084-5.225zm25.977-3.271h4.98l11.231 29.785c3.418 9.147 5.582 15.316 6.494 18.506h.293c1.367-4.199 3.597-10.466 6.689-18.799l11.231-29.492h4.98l-23.779 61.67c-1.921 5.013-3.532 8.398-4.834 10.156-1.302 1.758-2.832 3.076-4.59 3.955-1.725.879-3.825 1.318-6.299 1.318-1.855 0-3.922-.341-6.201-1.025v-4.199c1.888.521 3.923.781 6.104.781 1.66 0 3.125-.391 4.394-1.172 1.27-.781 2.409-2.002 3.418-3.662 1.042-1.628 2.23-4.232 3.565-7.812 1.367-3.549 2.246-5.86 2.636-6.934l-20.312-53.076z" fill="#FFFEF2"/></svg>